<?xml version="1.0" encoding="UTF-8" standalone="no"?>
<!DOCTYPE svg PUBLIC "-//W3C//DTD SVG 1.1//EN" "http://www.w3.org/Graphics/SVG/1.1/DTD/svg11.dtd">
<svg width="100%" height="100%" viewBox="0 0 1772 1772" version="1.1" xmlns="http://www.w3.org/2000/svg" xmlns:xlink="http://www.w3.org/1999/xlink" xml:space="preserve" xmlns:serif="http://www.serif.com/" style="fill-rule:evenodd;clip-rule:evenodd;stroke-linecap:round;stroke-linejoin:round;stroke-miterlimit:1.5;">
    <g transform="matrix(1,0,0,1,0.88189,0)">
        <path d="M1771.65,954.654L1771.65,1597.29C1771.65,1689.59 1700.69,1765.27 1610.92,1771.65L972.154,1771.65C1413.41,1771.65 1771.65,1413.41 1771.65,972.154C1771.65,966.285 1771.59,960.431 1771.47,954.654L1771.65,954.654ZM172.654,1771.62C169.633,1771.56 166.633,1771.42 163.658,1771.21L163,1771.21L163,1771.16C71.41,1764.38 -0.882,1687.83 -0.882,1594.53L-0.882,177.562C-0.882,79.806 78.483,0.441 176.239,0.441L1594.53,0.441C1686.02,0.441 1761.4,69.958 1770.69,159L1771.65,159L1771.65,172.654L972.154,172.654C559.976,172.654 220.231,485.237 177.246,886.047L172.654,1771.62ZM1627.92,319.331L1627.92,956.489L1627.77,956.489C1627.87,961.203 1627.92,965.979 1627.92,970.768C1627.92,1323.5 1347.36,1611.23 997.41,1622.76L459.756,1622.76L459.756,1622.4L370.001,1622.4L370.001,1622.76L326.851,1622.76L326.851,900.509L326.956,900.509C360.809,584.847 620.245,336.251 940.682,319.331L1627.92,319.331ZM1161.94,546.634L1196.78,511.793C1307.88,622.893 1353.55,774.803 1333.8,919.425C1341.89,924.19 1349.52,930.045 1356.46,936.99C1400.7,981.225 1400.7,1053.05 1356.46,1097.29C1328.39,1125.36 1289.2,1135.62 1253,1128.05C1236.6,1151.78 1217.87,1174.35 1196.78,1195.44C1175.68,1216.53 1153.12,1235.26 1129.39,1251.66C1136.96,1287.86 1126.7,1327.05 1098.62,1355.12C1054.39,1399.36 982.563,1399.36 938.328,1355.12C931.383,1348.18 925.529,1340.56 920.764,1332.46C776.142,1352.21 624.232,1306.54 513.132,1195.44L547.972,1160.6C548.968,1161.61 549.962,1162.62 550.962,1163.62C720.398,1333.05 995.519,1333.05 1164.95,1163.62C1334.39,994.18 1334.39,719.059 1164.95,549.623C1163.95,548.623 1162.95,547.63 1161.94,546.634Z" style="fill:rgb(248,230,0);stroke:black;stroke-width:8.33px;"/>
    </g>
</svg>
